<svg version="1.1" viewBox="0.0 0.0 226.03674540682414 143.9737532808399" fill="none" stroke="none" stroke-linecap="square" stroke-miterlimit="10" xmlns:xlink="http://www.w3.org/1999/xlink" xmlns="http://www.w3.org/2000/svg"><clipPath id="p.0"><path d="m0 0l226.03674 0l0 143.97375l-226.03674 0l0 -143.97375z" clip-rule="nonzero"/></clipPath><g clip-path="url(#p.0)"><path fill="#000000" fill-opacity="0.0" d="m0 0l226.03674 0l0 143.97375l-226.03674 0z" fill-rule="evenodd"/><path fill="#000000" fill-opacity="0.0" d="m-16.0 -64.0l114.86614 0l0 174.74016l-114.86614 0z" fill-rule="evenodd"/><path fill="#000000" d="m153.15625 126.359375q-7.03125 2.921875 -13.921875 5.375q-6.875 2.4375 -14.296875 4.203125q-7.421875 1.75 -15.625 2.71875q-8.203125 0.984375 -17.875 0.984375q-11.90625 0 -22.90625 -1.953125q-10.984375 -1.953125 -20.453125 -5.859375q-9.46875 -3.90625 -17.1875 -9.71875q-7.71875 -5.8125 -13.234375 -13.53125q-5.515625 -7.71875 -8.5 -17.375q-2.96875 -9.671875 -2.96875 -21.203125q0 -11.515625 2.96875 -21.1875q2.984375 -9.671875 8.5 -17.375q5.515625 -7.71875 13.234375 -13.53125q7.71875 -5.8125 17.1875 -9.71875q9.46875 -3.90625 20.40625 -5.859375q10.9375 -1.953125 22.953125 -1.953125q9.671875 0 17.875 0.984375q8.203125 0.96875 15.625 2.734375q7.421875 1.75 14.296875 4.140625q6.890625 2.390625 13.921875 5.328125l0 14.640625q-5.5625 -3.515625 -11.921875 -6.640625q-6.34375 -3.125 -13.71875 -5.46875q-7.359375 -2.34375 -15.765625 -3.703125q-8.390625 -1.375 -17.96875 -1.375q-19.328125 0 -33.5 4.203125q-14.15625 4.203125 -23.390625 11.875q-9.21875 7.65625 -13.671875 18.546875q-4.4375 10.890625 -4.4375 24.359375q0 13.484375 4.4375 24.328125q4.453125 10.828125 13.671875 18.5q9.234375 7.671875 23.390625 11.828125q14.171875 4.140625 33.5 4.140625q9.578125 0 18.109375 -1.359375q8.546875 -1.375 16.015625 -3.71875q7.484375 -2.34375 13.78125 -5.421875q6.296875 -3.078125 11.46875 -6.5l0 14.5625l0 0z" fill-rule="nonzero"/><path fill="#000000" fill-opacity="0.0" d="m40.062992 -64.0l58.80315 0l0 174.74016l-58.80315 0z" fill-rule="evenodd"/><path fill="#000000" d="m71.625496 137.0l0 -134.1875l12.203125 0l0 134.1875l-12.203125 0z" fill-rule="nonzero"/><path fill="#000000" fill-opacity="0.0" d="m59.83727 -64.0l91.37009 0l0 171.2126l-91.37009 0z" fill-rule="evenodd"/><path fill="#000000" d="m222.25914 44.03125q0 10.0625 -3.28125 17.78125q-3.265625 7.703125 -10.296875 12.984375q-7.03125 5.265625 -18.125 7.953125q-11.078125 2.6875 -26.703125 2.6875l-60.249992 0l0 51.5625l-12.203125 0l0 -134.1875l72.45312 0q15.625 0 26.703125 2.6875q11.09375 2.6875 18.125 7.875q7.03125 5.171875 10.296875 12.890625q3.28125 7.703125 3.28125 17.765625zm-12.59375 0q0 -9.578125 -3.1875 -15.4375q-3.171875 -5.859375 -9.765625 -9.03125q-6.578125 -3.171875 -16.6875 -4.234375q-10.109375 -1.078125 -23.984375 -1.078125l-52.437492 0l0 59.765625l52.437492 0q5.375 0 11.46875 0.046875q6.109375 0.046875 12.0625 -0.578125q5.96875 -0.640625 11.390625 -2.25q5.421875 -1.625 9.5625 -4.9375q4.15625 -3.328125 6.640625 -8.6875q2.5 -5.375 2.5 -13.578125z" fill-rule="nonzero"/></g></svg>